<svg width="60" height="60" viewBox="0 0 60 60" fill="none" xmlns="http://www.w3.org/2000/svg">
<path d="M56.316 33.465L52.212 21.153C51.6167 19.3604 50.4715 17.8011 48.9393 16.6965C47.4072 15.5919 45.5658 14.9983 43.677 15H16.323C14.4342 14.9983 12.5928 15.5919 11.0607 16.6965C9.52846 17.8011 8.38335 19.3604 7.788 21.153L3.684 33.465C2.5929 33.922 1.66114 34.6911 1.0057 35.6759C0.350271 36.6606 0.000391987 37.8171 0 39V48C0 50.214 1.212 52.128 3 53.169V57C3 57.7956 3.31607 58.5587 3.87868 59.1213C4.44129 59.6839 5.20435 60 6 60H9C9.79565 60 10.5587 59.6839 11.1213 59.1213C11.6839 58.5587 12 57.7956 12 57V54H48V57C48 57.7956 48.3161 58.5587 48.8787 59.1213C49.4413 59.6839 50.2043 60 51 60H54C54.7957 60 55.5587 59.6839 56.1213 59.1213C56.6839 58.5587 57 57.7956 57 57V53.169C57.9102 52.647 58.6667 51.8944 59.1934 50.9869C59.7201 50.0795 59.9983 49.0492 60 48V39C60 36.507 58.479 34.374 56.316 33.465ZM16.323 21H43.674C44.3039 20.9998 44.9179 21.198 45.4288 21.5663C45.9398 21.9346 46.322 22.4544 46.521 23.052L49.839 33H10.161L13.476 23.052C13.887 21.825 15.033 21 16.323 21ZM10.5 48C9.90885 47.9998 9.32354 47.8832 8.77746 47.6568C8.23139 47.4304 7.73526 47.0986 7.3174 46.6805C6.47348 45.836 5.9996 44.6909 6 43.497C6.0004 42.3031 6.47504 41.1583 7.31952 40.3144C8.164 39.4705 9.30913 38.9966 10.503 38.997C11.6969 38.9974 12.8417 39.472 13.6856 40.3165C14.5295 41.161 15.0034 42.3061 15.003 43.5C15.0026 44.6939 14.528 45.8387 13.6835 46.6826C12.839 47.5265 11.6939 48.0004 10.5 48ZM49.5 48C48.3061 47.9996 47.1613 47.525 46.3174 46.6805C45.4735 45.836 44.9996 44.6909 45 43.497C45.0004 42.3031 45.475 41.1583 46.3195 40.3144C47.164 39.4705 48.3091 38.9966 49.503 38.997C50.6969 38.9974 51.8417 39.472 52.6856 40.3165C53.5295 41.161 54.0034 42.3061 54.003 43.5C54.0026 44.6939 53.528 45.8387 52.6835 46.6826C51.839 47.5265 50.6939 48.0004 49.5 48ZM9.831 9C10.872 10.785 12.786 12 15 12C17.214 12 19.128 10.785 20.169 9H39.834C40.872 10.785 42.786 12 45 12C47.214 12 49.128 10.785 50.169 9H45V3H50.169C49.128 1.215 47.214 0 45 0C42.786 0 40.872 1.215 39.831 3H20.169C19.128 1.215 17.214 0 15 0C12.786 0 10.872 1.215 9.831 3H15V9H9.831Z" fill="url(#paint0_linear_12_81)"/>
<defs>
<linearGradient id="paint0_linear_12_81" x1="5.5" y1="-10" x2="60" y2="67" gradientUnits="userSpaceOnUse">
<stop stop-color="#CB00FE"/>
<stop offset="0.487362" stop-color="#4400D6"/>
<stop offset="1" stop-color="#FF4B4B"/>
</linearGradient>
</defs>
</svg>
