<svg width="60" height="60" viewBox="0 0 60 60" fill="none" xmlns="http://www.w3.org/2000/svg">
<path d="M8.57143 8.57143C8.57143 6.29814 9.47449 4.11797 11.0819 2.51051C12.6894 0.903059 14.8696 0 17.1429 0C19.4161 0 21.5963 0.903059 23.2038 2.51051C24.8112 4.11797 25.7143 6.29814 25.7143 8.57143C25.7143 10.8447 24.8112 13.0249 23.2038 14.6323C21.5963 16.2398 19.4161 17.1429 17.1429 17.1429C14.8696 17.1429 12.6894 16.2398 11.0819 14.6323C9.47449 13.0249 8.57143 10.8447 8.57143 8.57143ZM37.6243 15.36L37.8043 15.4971C39.6227 16.845 41.9004 17.4189 44.1404 17.0936C46.3804 16.7683 48.4008 15.5702 49.7606 13.7607C51.1205 11.9513 51.7094 9.67737 51.3989 7.43529C51.0884 5.1932 49.9036 3.16496 48.1031 1.79319C46.3027 0.421424 44.0327 -0.1825 41.7887 0.113216C39.5446 0.408933 37.5086 1.58028 36.1249 3.37164C34.7413 5.16299 34.1224 7.42891 34.4033 9.67489C34.6842 11.9209 35.8421 13.9646 37.6243 15.36ZM22.5771 21.4286C23.1154 20.4093 23.8538 19.509 24.7481 18.7817C25.6423 18.0543 26.6741 17.5148 27.7817 17.1954C28.8892 16.8761 30.0499 16.7834 31.1941 16.9229C32.3383 17.0624 33.4426 17.4313 34.441 18.0075C35.4394 18.5837 36.3113 19.3553 37.0045 20.2762C37.6978 21.1972 38.1982 22.2485 38.4758 23.3673C38.7533 24.486 38.8024 25.6493 38.62 26.7875C38.4376 27.9257 38.0275 29.0154 37.4143 29.9914C36.2345 31.8691 34.3729 33.2165 32.2206 33.7505C30.0683 34.2845 27.7928 33.9635 25.8721 32.8551C23.9515 31.7466 22.5351 29.9369 21.9207 27.8062C21.3063 25.6754 21.5416 23.3895 22.5771 21.4286ZM6.42857 21.4286H17.8714C17.1097 23.6038 16.9441 25.9433 17.3918 28.2041C17.8394 30.465 18.884 32.5648 20.4171 34.2857H19.2857C17.0762 34.2854 14.9205 34.9679 13.1138 36.2399C11.3071 37.5119 9.93762 39.3112 9.19286 41.3914C7.75429 40.8135 6.40735 40.0296 5.19428 39.0643C1.97143 36.4714 0 32.64 0 27.8571C0 26.1522 0.677294 24.517 1.88289 23.3115C3.08848 22.1059 4.72361 21.4286 6.42857 21.4286ZM40.7143 34.2857C42.9233 34.2857 45.0783 34.9684 46.8842 36.2404C48.6902 37.5124 50.0589 39.3115 50.8029 41.3914C52.26 40.7957 53.61 40.02 54.8057 39.0643C58.0286 36.4714 60 32.64 60 27.8571C60 26.1522 59.3227 24.517 58.1171 23.3115C56.9115 22.1059 55.2764 21.4286 53.5714 21.4286H42.1286C42.6 22.77 42.8571 24.2143 42.8571 25.7143C42.8611 28.8776 41.6948 31.9307 39.5829 34.2857H40.7143ZM46.6586 42.5486C46.9714 43.3029 47.1429 44.1343 47.1429 45C47.1429 49.7829 45.1757 53.6143 41.9486 56.2071C38.7729 58.7571 34.5129 60 30 60C25.4871 60 21.2271 58.7571 18.0514 56.2071C14.8286 53.6143 12.8571 49.7829 12.8571 45C12.8549 44.1552 13.0196 43.3182 13.3419 42.5372C13.6641 41.7562 14.1376 41.0467 14.735 40.4493C15.3324 39.8519 16.042 39.3784 16.8229 39.0562C17.6039 38.7339 18.4409 38.5692 19.2857 38.5714H40.7143C41.9876 38.5711 43.2323 38.949 44.2906 39.657C45.3488 40.3651 46.173 41.3715 46.6586 42.5486Z" fill="url(#paint0_linear_12_85)"/>
<defs>
<linearGradient id="paint0_linear_12_85" x1="5.5" y1="-10" x2="60" y2="67" gradientUnits="userSpaceOnUse">
<stop stop-color="#CB00FE"/>
<stop offset="0.487362" stop-color="#4400D6"/>
<stop offset="1" stop-color="#FF4B4B"/>
</linearGradient>
</defs>
</svg>
