<svg width="31" height="35" viewBox="0 0 31 35" fill="none" xmlns="http://www.w3.org/2000/svg">
<path d="M11.6249 15.7824H13.1749C13.6399 15.7824 13.9499 15.4733 13.9499 15.0097V12.6915H26.3499V15.0097C26.3499 15.4733 26.6599 15.7824 27.1249 15.7824H28.6749C29.1399 15.7824 29.4499 15.4733 29.4499 15.0097V8.05515L27.2799 1.4097C27.1249 0.791517 26.5049 0.327881 25.8849 0.327881H14.5699C13.9499 0.327881 13.3299 0.791517 13.1749 1.4097L10.8499 8.05515V15.0097C10.8499 15.4733 11.1599 15.7824 11.6249 15.7824ZM14.4149 1.87334H25.7299L27.1249 6.5097H13.0199L14.4149 1.87334ZM15.4999 34.3279H12.3999C12.3999 33.0915 9.45494 32.0097 7.12994 31.0824C3.87494 29.8461 -6.10352e-05 28.4552 -6.10352e-05 25.0552C-6.10352e-05 21.5006 3.56494 20.5733 6.50994 19.6461C9.14494 19.0279 10.8499 18.4097 10.8499 17.3279H13.9499C13.9499 20.8824 10.3849 21.8097 7.43994 22.737C4.80494 23.3552 3.09994 23.9733 3.09994 25.0552C3.09994 26.2915 6.04494 27.3733 8.36994 28.3006C11.6249 29.537 15.4999 30.9279 15.4999 34.3279ZM30.9999 34.3279H27.8999C27.8999 33.0915 24.9549 32.0097 22.6299 31.0824C19.3749 29.8461 15.4999 28.4552 15.4999 25.0552C15.4999 21.5006 19.0649 20.5733 22.0099 19.6461C24.4899 18.8733 26.3499 18.4097 26.3499 17.3279H29.4499C29.4499 20.8824 25.8849 21.8097 22.9399 22.737C20.4599 23.3552 18.5999 23.9733 18.5999 25.0552C18.5999 26.2915 21.5449 27.3733 23.8699 28.3006C27.1249 29.537 30.9999 30.9279 30.9999 34.3279Z" fill="#4400D6"/>
</svg>
