<svg width="32" height="31" viewBox="0 0 32 31" fill="none" xmlns="http://www.w3.org/2000/svg">
<path d="M24.3809 20.5351C24.3809 24.5766 22.5523 28.1517 19.6571 30.3279L18.8952 29.5507L15.6952 26.2864L17.8285 24.1103L19.6571 25.9756C20.419 24.8875 21.0285 23.4885 21.1809 22.0895H18.2857V18.9807H21.1809C20.8761 17.5818 20.419 16.3382 19.6571 15.0947L17.8285 16.96L15.6952 14.7838L17.5237 12.9186C16.4571 12.1414 15.0857 11.5196 13.7142 11.3642V14.3175H10.6666V11.3642C9.29518 11.675 8.07613 12.1414 6.85708 12.9186L11.4285 17.5818C11.7333 17.5818 11.8857 17.4263 12.1904 17.4263C12.9987 17.4263 13.7739 17.7539 14.3454 18.3369C14.9169 18.9199 15.238 19.7106 15.238 20.5351C15.238 21.3596 14.9169 22.1504 14.3454 22.7334C13.7739 23.3164 12.9987 23.6439 12.1904 23.6439C10.499 23.6439 9.1428 22.2605 9.1428 20.5351C9.1428 20.2243 9.1428 20.0688 9.29518 19.7579L4.72375 15.0947C3.96184 16.1828 3.35232 17.5818 3.19994 18.9807H6.09518V22.0895H3.19994C3.5047 23.4885 3.96184 24.732 4.72375 25.9756L6.55232 24.1103L8.68565 26.2864L4.72375 30.3279C1.82851 28.1517 -6.10352e-05 24.5766 -6.10352e-05 20.5351C-6.10352e-05 13.6647 5.45518 8.0999 12.1904 8.0999C18.9257 8.0999 24.3809 13.6647 24.3809 20.5351ZM31.9999 4.99109C31.9999 2.41078 29.958 0.327881 27.4285 0.327881C24.899 0.327881 22.8571 2.41078 22.8571 4.99109C22.8571 7.01182 24.1371 8.72166 25.9047 9.37451V14.3175H28.9523V9.37451C30.7199 8.72166 31.9999 7.01182 31.9999 4.99109ZM27.4285 6.5455C26.5904 6.5455 25.9047 5.84602 25.9047 4.99109C25.9047 4.13617 26.5904 3.43669 27.4285 3.43669C28.2666 3.43669 28.9523 4.13617 28.9523 4.99109C28.9523 5.84602 28.2666 6.5455 27.4285 6.5455Z" fill="#4400D6"/>
</svg>
